<svg width="272" height="56" viewBox="0 0 272 56" fill="none" xmlns="http://www.w3.org/2000/svg">
<path d="M10.4531 27.6719H6.71875V36H2.03125V13.25H10.4844C13.1719 13.25 15.2448 13.849 16.7031 15.0469C18.1615 16.2448 18.8906 17.9375 18.8906 20.125C18.8906 21.6771 18.5521 22.974 17.875 24.0156C17.2083 25.0469 16.1927 25.8698 14.8281 26.4844L19.75 35.7812V36H14.7188L10.4531 27.6719ZM6.71875 23.875H10.5C11.6771 23.875 12.5885 23.5781 13.2344 22.9844C13.8802 22.3802 14.2031 21.5521 14.2031 20.5C14.2031 19.4271 13.8958 18.5833 13.2812 17.9688C12.6771 17.3542 11.7448 17.0469 10.4844 17.0469H6.71875V23.875ZM36.1562 26.1406H27.1562V32.2344H37.7188V36H22.4688V13.25H37.6875V17.0469H27.1562V22.4688H36.1562V26.1406ZM53.3125 31.3125H45.0938L43.5312 36H38.5469L47.0156 13.25H51.3594L59.875 36H54.8906L53.3125 31.3125ZM46.3594 27.5156H52.0469L49.1875 19L46.3594 27.5156ZM79.5156 28.4219C79.3385 30.8698 78.4323 32.7969 76.7969 34.2031C75.1719 35.6094 73.026 36.3125 70.3594 36.3125C67.4427 36.3125 65.1458 35.3333 63.4688 33.375C61.8021 31.4062 60.9688 28.7083 60.9688 25.2812V23.8906C60.9688 21.7031 61.3542 19.776 62.125 18.1094C62.8958 16.4427 63.9948 15.1667 65.4219 14.2812C66.8594 13.3854 68.526 12.9375 70.4219 12.9375C73.0469 12.9375 75.1615 13.6406 76.7656 15.0469C78.3698 16.4531 79.2969 18.4271 79.5469 20.9688H74.8594C74.7448 19.5 74.3333 18.4375 73.625 17.7812C72.9271 17.1146 71.8594 16.7812 70.4219 16.7812C68.8594 16.7812 67.6875 17.3438 66.9062 18.4688C66.1354 19.5833 65.7396 21.3177 65.7188 23.6719V25.3906C65.7188 27.849 66.0885 29.6458 66.8281 30.7812C67.5781 31.9167 68.7552 32.4844 70.3594 32.4844C71.8073 32.4844 72.8854 32.1562 73.5938 31.5C74.3125 30.8333 74.724 29.8073 74.8281 28.4219H79.5156ZM99.25 17.0469H92.2812V36H87.5938V17.0469H80.7188V13.25H99.25V17.0469ZM113.484 30.0312C113.484 29.1458 113.172 28.4688 112.547 28C111.922 27.5208 110.797 27.0208 109.172 26.5C107.547 25.9688 106.26 25.4479 105.312 24.9375C102.729 23.5417 101.438 21.6615 101.438 19.2969C101.438 18.0677 101.781 16.974 102.469 16.0156C103.167 15.0469 104.161 14.2917 105.453 13.75C106.755 13.2083 108.214 12.9375 109.828 12.9375C111.453 12.9375 112.901 13.2344 114.172 13.8281C115.443 14.4115 116.427 15.2396 117.125 16.3125C117.833 17.3854 118.188 18.6042 118.188 19.9688H113.5C113.5 18.9271 113.172 18.1198 112.516 17.5469C111.859 16.9635 110.938 16.6719 109.75 16.6719C108.604 16.6719 107.714 16.9167 107.078 17.4062C106.443 17.8854 106.125 18.5208 106.125 19.3125C106.125 20.0521 106.495 20.6719 107.234 21.1719C107.984 21.6719 109.083 22.1406 110.531 22.5781C113.198 23.3802 115.141 24.375 116.359 25.5625C117.578 26.75 118.188 28.2292 118.188 30C118.188 31.9688 117.443 33.5156 115.953 34.6406C114.464 35.7552 112.458 36.3125 109.938 36.3125C108.188 36.3125 106.594 35.9948 105.156 35.3594C103.719 34.7135 102.62 33.8333 101.859 32.7188C101.109 31.6042 100.734 30.3125 100.734 28.8438H105.438C105.438 31.3542 106.938 32.6094 109.938 32.6094C111.052 32.6094 111.922 32.3854 112.547 31.9375C113.172 31.4792 113.484 30.8438 113.484 30.0312ZM139.891 36H135.203V26.25H126.062V36H121.375V13.25H126.062V22.4688H135.203V13.25H139.891V36ZM162.688 25.1406C162.688 27.3802 162.292 29.3438 161.5 31.0312C160.708 32.7188 159.573 34.0208 158.094 34.9375C156.625 35.8542 154.938 36.3125 153.031 36.3125C151.146 36.3125 149.464 35.8594 147.984 34.9531C146.505 34.0469 145.359 32.7552 144.547 31.0781C143.734 29.3906 143.323 27.4531 143.312 25.2656V24.1406C143.312 21.901 143.714 19.9323 144.516 18.2344C145.328 16.526 146.469 15.2188 147.938 14.3125C149.417 13.3958 151.104 12.9375 153 12.9375C154.896 12.9375 156.578 13.3958 158.047 14.3125C159.526 15.2188 160.667 16.526 161.469 18.2344C162.281 19.9323 162.688 21.8958 162.688 24.125V25.1406ZM157.938 24.1094C157.938 21.724 157.51 19.9115 156.656 18.6719C155.802 17.4323 154.583 16.8125 153 16.8125C151.427 16.8125 150.214 17.4271 149.359 18.6562C148.505 19.875 148.073 21.6667 148.062 24.0312V25.1406C148.062 27.4635 148.49 29.2656 149.344 30.5469C150.198 31.8281 151.427 32.4688 153.031 32.4688C154.604 32.4688 155.812 31.8542 156.656 30.625C157.5 29.3854 157.927 27.5833 157.938 25.2188V24.1094ZM179.781 26.1406H170.781V32.2344H181.344V36H166.094V13.25H181.312V17.0469H170.781V22.4688H179.781V26.1406ZM195.891 30.0312C195.891 29.1458 195.578 28.4688 194.953 28C194.328 27.5208 193.203 27.0208 191.578 26.5C189.953 25.9688 188.667 25.4479 187.719 24.9375C185.135 23.5417 183.844 21.6615 183.844 19.2969C183.844 18.0677 184.188 16.974 184.875 16.0156C185.573 15.0469 186.568 14.2917 187.859 13.75C189.161 13.2083 190.62 12.9375 192.234 12.9375C193.859 12.9375 195.307 13.2344 196.578 13.8281C197.849 14.4115 198.833 15.2396 199.531 16.3125C200.24 17.3854 200.594 18.6042 200.594 19.9688H195.906C195.906 18.9271 195.578 18.1198 194.922 17.5469C194.266 16.9635 193.344 16.6719 192.156 16.6719C191.01 16.6719 190.12 16.9167 189.484 17.4062C188.849 17.8854 188.531 18.5208 188.531 19.3125C188.531 20.0521 188.901 20.6719 189.641 21.1719C190.391 21.6719 191.49 22.1406 192.938 22.5781C195.604 23.3802 197.547 24.375 198.766 25.5625C199.984 26.75 200.594 28.2292 200.594 30C200.594 31.9688 199.849 33.5156 198.359 34.6406C196.87 35.7552 194.865 36.3125 192.344 36.3125C190.594 36.3125 189 35.9948 187.562 35.3594C186.125 34.7135 185.026 33.8333 184.266 32.7188C183.516 31.6042 183.141 30.3125 183.141 28.8438H187.844C187.844 31.3542 189.344 32.6094 192.344 32.6094C193.458 32.6094 194.328 32.3854 194.953 31.9375C195.578 31.4792 195.891 30.8438 195.891 30.0312Z" fill="white"/>
<path d="M235 19.6364H246C247.2 19.6364 248.2 20.6181 248.6 22.2545C248.8 22.9091 248.8 23.5636 249 23.8908C252.8 22.9091 258 22.9091 258 22.9091H272C272 18.3273 271.8 12.1092 271 7.2L270.6 7.52719C270.4 7.85455 270 8.18174 269.6 8.83628C268.8 9.81802 268 10.7999 266.8 11.7817C263.8 14.3998 260.4 16.0361 256.8 16.0361C251 16.0361 247.2 10.7997 245.2 4.25429C245.2 3.92711 245 3.27256 244.6 1.96347C244.2 2.29083 244 2.61802 243.6 2.9452L245.6 7.85438L244 9.49066L242 4.58182C241.8 4.90918 241.4 5.23637 241.2 5.56373L243.2 10.8001L241.6 12.4364L239.6 7.52719C239.4 7.85455 239 8.18174 238.8 8.5091L240.6 13.4183L239 15.0546L237.2 10.4727C236.8 10.7999 236.6 11.1273 236.4 11.4545L238.2 16.0363L236.6 17.6727L234.6 12.4362C234.4 12.4362 234.2 12.4362 234 12.4362C233.2 12.4362 232.6 12.4362 232 12.4362V14.0725C232 14.727 232.2 15.7088 232.4 16.6907C232.8 18.6546 233.6 19.6364 235 19.6364Z" fill="white"/>
<path d="M257 13.0909C260.4 13.0909 263.4 11.7818 266 9.16364C267 8.1819 267.8 7.52736 268.4 6.54545C268.8 5.89091 269 5.56372 269.4 5.23636L270.4 4.25446C269.8 1.63628 269 0 268 0C263.4 0 264 6.54545 258 6.54545C252 6.54545 253 0 250 0C248.8 0 247.6 0.327358 246.6 0.981733C246.8 2.29082 247 3.27273 247 3.27273C248.8 8.83645 252 13.0909 257 13.0909Z" fill="white"/>
<path d="M258 26.1818C258 26.1818 252 26.1818 248.6 27.1636C245.6 28.1455 242.8 29.4546 240 29.4546H224.6H223C224.4 33.3818 227 36 230 36H268C270.2 36 272 33.0545 272 29.4546C272 29.4546 272 28.1455 272 26.1818H258Z" fill="white"/>
<path d="M240 26.1818C242.2 26.1818 244.6 25.5273 247 24.5455C247 24.2183 247 23.891 246.8 23.5638C246.8 23.2364 246.4 22.9093 246 22.9093H235C232.8 22.9093 231.4 21.273 230.6 18.6548C230.2 17.3457 230 15.7093 230 14.7275V13.0912C228.6 13.0912 228 13.0912 228 13.0912C224.6 13.0909 222 17.3454 222 22.9091C222 23.8908 222 25.2001 222.2 26.1818H224.6H240Z" fill="white"/>
</svg>
